<svg version="1.1" id="Layer_1" xmlns="http://www.w3.org/2000/svg" xmlns:xlink="http://www.w3.org/1999/xlink" x="0px" y="0px"
	 width="100%" viewBox="0 0 371 79" enable-background="new 0 0 371 79" xml:space="preserve">
<path fill="#FDFDFD" opacity="1.000000" stroke="none" 
	d="
M235.000000,1.000000 
	C280.644257,1.000000 326.288544,1.000000 371.966400,1.000000 
	C371.966400,27.297974 371.966400,53.596001 371.966400,79.947014 
	C248.429352,79.947014 124.858665,79.947014 1.143993,79.947014 
	C1.143993,53.776283 1.143993,27.551514 1.143993,1.000000 
	C76.020576,1.000000 151.041626,1.000000 226.584244,1.350271 
	C225.607315,3.253617 223.776810,4.612827 222.719574,6.423540 
	C221.929825,7.776160 221.328659,10.562559 222.041687,11.240952 
	C225.212265,14.257525 229.288147,19.258024 232.275833,18.780533 
	C235.924042,18.197472 239.227127,13.124200 241.675797,9.342843 
	C242.162598,8.591087 238.111725,4.908590 236.165482,2.567445 
	C235.749863,2.067512 235.387100,1.523634 235.000000,1.000000 
M218.367798,28.595921 
	C218.615051,30.665976 218.125183,33.853855 219.248856,34.594818 
	C222.515274,36.748734 221.910797,39.595261 221.923233,42.479202 
	C221.947617,48.129406 221.930374,53.779781 221.930374,59.430088 
	C221.930374,64.161186 221.930389,68.892288 221.930389,73.485382 
	C228.451477,73.485382 234.183609,73.485382 239.941742,73.485382 
	C239.941742,57.239990 239.941742,41.343727 239.941742,25.001600 
	C238.626984,25.001600 237.478607,24.864502 236.373169,25.024368 
	C230.262451,25.908089 224.162216,26.864180 218.013474,26.918406 
	C217.212479,26.278223 216.435211,25.122971 215.606506,25.084820 
	C211.474030,24.894571 207.328049,24.997864 202.977844,24.997864 
	C200.674088,35.145855 198.430588,45.028412 196.187088,54.910973 
	C195.972397,54.855080 195.757721,54.799187 195.543030,54.743290 
	C193.595016,44.883492 191.647003,35.023693 189.665756,24.995724 
	C183.220718,24.995724 177.190552,25.480740 171.269379,24.884010 
	C161.986938,23.948536 155.132553,26.390297 152.131561,37.613155 
	C151.381317,32.399513 150.865479,28.814808 150.219727,24.327229 
	C144.348770,25.586733 138.804581,26.776134 132.516373,28.125153 
	C133.388794,31.048893 133.932846,33.163662 134.657593,35.214577 
	C135.310608,37.062538 136.787964,38.828678 136.822495,40.651352 
	C137.029678,51.585640 136.925262,62.525829 136.925262,73.456223 
	C143.325333,73.456223 149.190231,73.456223 155.300705,73.456223 
	C155.300705,66.591850 155.300446,60.105427 155.300751,53.619007 
	C155.301147,45.419754 157.019501,43.884937 165.385193,44.629498 
	C166.191635,44.701275 166.992584,44.834736 168.291199,45.004158 
	C168.698135,39.862709 169.087646,34.941422 169.477173,30.020136 
	C170.817078,30.917788 171.386551,31.859808 171.742111,32.876621 
	C174.754166,41.490837 177.685333,50.133507 180.728043,58.736763 
	C182.490173,63.719189 183.070679,70.570442 186.638748,73.057655 
	C190.250977,75.575661 196.890213,73.756523 202.203766,73.819664 
	C202.693115,73.825478 203.183975,73.704735 203.870270,73.617950 
	C204.561554,71.454842 205.285355,69.250038 205.971420,67.033554 
	C210.026993,53.931007 214.073807,40.825752 218.367798,28.595921 
M54.454784,61.282272 
	C49.194439,59.522247 43.934090,57.762222 38.495323,55.942501 
	C38.345394,57.558300 38.480637,60.125004 37.812153,62.461781 
	C36.447689,67.231430 38.874226,69.529190 42.676582,71.371422 
	C50.809429,75.311760 59.359871,76.530922 67.816422,73.473915 
	C71.429306,72.167862 75.094406,69.116768 77.198257,65.864143 
	C84.894669,53.965244 80.751724,39.748287 68.294548,33.216110 
	C65.064682,31.522465 61.597862,30.107389 58.771500,27.887506 
	C57.260071,26.700392 56.001808,23.931253 56.286072,22.138842 
	C56.492336,20.838276 59.523560,18.938231 61.111042,19.100996 
	C65.837616,19.585611 70.473351,20.956228 75.494797,22.057465 
	C75.781624,21.068832 76.130432,19.093103 76.917198,17.310692 
	C78.733147,13.196638 77.082008,10.185769 73.384964,9.100577 
	C68.068672,7.540090 62.479904,6.145371 56.993649,6.091800 
	C46.868176,5.992929 40.433125,10.681806 38.045586,18.478035 
	C35.018528,28.362537 37.956467,38.189941 46.010712,43.783401 
	C49.809330,46.421448 54.346649,48.050331 57.946911,50.898014 
	C59.945953,52.479191 60.704834,55.628284 62.022675,58.070694 
	C59.796066,59.108746 57.569454,60.146793 54.454784,61.282272 
M289.105988,38.976902 
	C288.745178,44.423721 287.849884,49.899235 288.140442,55.311089 
	C288.664429,65.070992 293.523529,72.005791 302.297211,73.433105 
	C309.639130,74.627502 317.466187,74.188866 324.889069,73.137131 
	C331.603912,72.185730 336.395996,67.115196 337.585938,60.535942 
	C338.773926,53.967670 339.076965,46.972309 338.215912,40.366501 
	C337.080139,31.653259 331.414734,26.100462 322.454254,24.801888 
	C318.210907,24.186930 313.849579,23.862026 309.576538,24.082195 
	C300.021118,24.574545 292.680176,28.613012 289.105988,38.976902 
M112.500038,52.707676 
	C118.429977,52.707676 124.359909,52.707676 131.098373,52.707676 
	C130.585114,46.939373 130.522049,41.791634 129.580017,36.810108 
	C128.495102,31.072870 125.003922,26.804569 119.202705,25.154654 
	C112.163391,23.152617 105.080162,23.199009 98.169510,25.923100 
	C92.043282,28.337986 87.569855,32.776737 86.351555,39.089981 
	C85.208130,45.015236 84.790215,51.362617 85.591728,57.317135 
	C86.901703,67.049004 93.137276,72.815361 102.938347,74.639885 
	C113.666252,76.636948 125.295448,72.483437 129.721344,64.817307 
	C128.725235,63.192120 127.699165,61.518055 126.674179,59.845768 
	C115.618645,66.602577 103.038284,66.344681 104.713257,52.707668 
	C106.918839,52.707668 109.208145,52.707668 112.500038,52.707676 
M248.773254,61.805508 
	C247.893799,62.623547 246.270737,63.446507 246.276123,64.258675 
	C246.291443,66.573799 243.869476,69.360107 247.598679,71.190292 
	C256.215820,75.419334 265.089783,76.195648 274.217834,73.490639 
	C281.225464,71.414017 284.767090,66.766632 285.391144,59.273052 
	C285.992950,52.046951 283.885376,46.018806 276.971619,42.719822 
	C273.711517,41.164227 270.038483,40.488098 266.724182,39.024769 
	C265.510040,38.488705 264.791687,36.829731 263.847198,35.683002 
	C265.068481,34.791203 266.356293,33.066101 267.499146,33.157303 
	C271.617401,33.485954 275.686829,34.426785 279.988373,35.173470 
	C280.542114,33.373772 281.268158,31.013937 282.114288,28.263878 
	C274.904083,22.953894 266.913788,23.084686 258.841339,24.853411 
	C250.766861,26.622578 246.194275,31.664221 245.724579,38.480663 
	C245.151382,46.799236 249.044296,52.819469 257.037354,55.807690 
	C259.673004,56.793022 262.504120,57.328121 265.015839,58.544193 
	C266.469757,59.248096 267.465302,60.898762 268.667145,62.123329 
	C267.106995,63.080292 265.446289,64.977158 264.005005,64.822952 
	C259.132080,64.301567 254.336960,63.052906 248.773254,61.805508 
z"/>
<path fill="#2D8727" opacity="1.000000" stroke="none" 
	d="
M234.555832,1.000000 
	C235.387100,1.523634 235.749863,2.067512 236.165482,2.567445 
	C238.111725,4.908590 242.162598,8.591087 241.675797,9.342843 
	C239.227127,13.124200 235.924042,18.197472 232.275833,18.780533 
	C229.288147,19.258024 225.212265,14.257525 222.041687,11.240952 
	C221.328659,10.562559 221.929825,7.776160 222.719574,6.423540 
	C223.776810,4.612827 225.607315,3.253617 227.052902,1.350271 
	C229.370560,1.000000 231.741104,1.000000 234.555832,1.000000 
z"/>
<path fill="#040404" opacity="1.000000" stroke="none" 
	d="
M218.123581,27.721413 
	C214.073807,40.825752 210.026993,53.931007 205.971420,67.033554 
	C205.285355,69.250038 204.561554,71.454842 203.870270,73.617950 
	C203.183975,73.704735 202.693115,73.825478 202.203766,73.819664 
	C196.890213,73.756523 190.250977,75.575661 186.638748,73.057655 
	C183.070679,70.570442 182.490173,63.719189 180.728043,58.736763 
	C177.685333,50.133507 174.754166,41.490837 171.742111,32.876621 
	C171.386551,31.859808 170.817078,30.917788 169.477173,30.020136 
	C169.087646,34.941422 168.698135,39.862709 168.291199,45.004158 
	C166.992584,44.834736 166.191635,44.701275 165.385193,44.629498 
	C157.019501,43.884937 155.301147,45.419754 155.300751,53.619007 
	C155.300446,60.105427 155.300705,66.591850 155.300705,73.456223 
	C149.190231,73.456223 143.325333,73.456223 136.925262,73.456223 
	C136.925262,62.525829 137.029678,51.585640 136.822495,40.651352 
	C136.787964,38.828678 135.310608,37.062538 134.657593,35.214577 
	C133.932846,33.163662 133.388794,31.048893 132.516373,28.125153 
	C138.804581,26.776134 144.348770,25.586733 150.219727,24.327229 
	C150.865479,28.814808 151.381317,32.399513 152.131561,37.613155 
	C155.132553,26.390297 161.986938,23.948536 171.269379,24.884010 
	C177.190552,25.480740 183.220718,24.995724 189.665756,24.995724 
	C191.647003,35.023693 193.595016,44.883492 195.543030,54.743290 
	C195.757721,54.799187 195.972397,54.855080 196.187088,54.910973 
	C198.430588,45.028412 200.674088,35.145855 202.977844,24.997864 
	C207.328049,24.997864 211.474030,24.894571 215.606506,25.084820 
	C216.435211,25.122971 217.212479,26.278223 218.083496,27.366175 
	C218.153503,27.813944 218.123581,27.721415 218.123581,27.721413 
z"/>
<path fill="#040404" opacity="1.000000" stroke="none" 
	d="
M54.898815,61.233559 
	C57.569454,60.146793 59.796066,59.108746 62.022675,58.070694 
	C60.704834,55.628284 59.945953,52.479191 57.946911,50.898014 
	C54.346649,48.050331 49.809330,46.421448 46.010712,43.783401 
	C37.956467,38.189941 35.018528,28.362537 38.045586,18.478035 
	C40.433125,10.681806 46.868176,5.992929 56.993649,6.091800 
	C62.479904,6.145371 68.068672,7.540090 73.384964,9.100577 
	C77.082008,10.185769 78.733147,13.196638 76.917198,17.310692 
	C76.130432,19.093103 75.781624,21.068832 75.494797,22.057465 
	C70.473351,20.956228 65.837616,19.585611 61.111042,19.100996 
	C59.523560,18.938231 56.492336,20.838276 56.286072,22.138842 
	C56.001808,23.931253 57.260071,26.700392 58.771500,27.887506 
	C61.597862,30.107389 65.064682,31.522465 68.294548,33.216110 
	C80.751724,39.748287 84.894669,53.965244 77.198257,65.864143 
	C75.094406,69.116768 71.429306,72.167862 67.816422,73.473915 
	C59.359871,76.530922 50.809429,75.311760 42.676582,71.371422 
	C38.874226,69.529190 36.447689,67.231430 37.812153,62.461781 
	C38.480637,60.125004 38.345394,57.558300 38.495323,55.942501 
	C43.934090,57.762222 49.194439,59.522247 54.898815,61.233559 
z"/>
<path fill="#030303" opacity="1.000000" stroke="none" 
	d="
M289.229126,38.591026 
	C292.680176,28.613012 300.021118,24.574545 309.576538,24.082195 
	C313.849579,23.862026 318.210907,24.186930 322.454254,24.801888 
	C331.414734,26.100462 337.080139,31.653259 338.215912,40.366501 
	C339.076965,46.972309 338.773926,53.967670 337.585938,60.535942 
	C336.395996,67.115196 331.603912,72.185730 324.889069,73.137131 
	C317.466187,74.188866 309.639130,74.627502 302.297211,73.433105 
	C293.523529,72.005791 288.664429,65.070992 288.140442,55.311089 
	C287.849884,49.899235 288.745178,44.423721 289.229126,38.591026 
M308.671021,62.479645 
	C309.384521,65.270874 310.029175,68.247330 313.830963,68.025772 
	C317.821991,67.793190 318.632538,64.453690 318.692291,61.578484 
	C318.860931,53.461121 318.662811,45.326385 318.295471,37.212704 
	C318.159607,34.211590 317.215118,30.914671 313.269287,31.003771 
	C309.093353,31.098066 308.283691,34.597145 308.234009,37.758259 
	C308.108978,45.716644 308.383972,53.681316 308.671021,62.479645 
z"/>
<path fill="#050505" opacity="1.000000" stroke="none" 
	d="
M111.998749,52.707672 
	C109.208145,52.707668 106.918839,52.707668 104.713257,52.707668 
	C103.038284,66.344681 115.618645,66.602577 126.674179,59.845768 
	C127.699165,61.518055 128.725235,63.192120 129.721344,64.817307 
	C125.295448,72.483437 113.666252,76.636948 102.938347,74.639885 
	C93.137276,72.815361 86.901703,67.049004 85.591728,57.317135 
	C84.790215,51.362617 85.208130,45.015236 86.351555,39.089981 
	C87.569855,32.776737 92.043282,28.337986 98.169510,25.923100 
	C105.080162,23.199009 112.163391,23.152617 119.202705,25.154654 
	C125.003922,26.804569 128.495102,31.072870 129.580017,36.810108 
	C130.522049,41.791634 130.585114,46.939373 131.098373,52.707676 
	C124.359909,52.707676 118.429977,52.707676 111.998749,52.707672 
M107.759338,44.084389 
	C109.507957,44.084389 111.256577,44.084389 113.314247,44.084389 
	C113.042946,40.334515 113.142380,37.148132 112.441589,34.148712 
	C112.138870,32.853043 110.167046,31.069849 108.981552,31.090916 
	C107.646912,31.114628 105.552391,32.703537 105.193130,34.000679 
	C104.460381,36.646301 104.528801,39.556622 104.603416,42.348915 
	C104.619392,42.946590 106.064789,43.506065 107.759338,44.084389 
z"/>
<path fill="#040404" opacity="1.000000" stroke="none" 
	d="
M249.142670,61.943878 
	C254.336960,63.052906 259.132080,64.301567 264.005005,64.822952 
	C265.446289,64.977158 267.106995,63.080292 268.667145,62.123337 
	C267.465302,60.898762 266.469757,59.248096 265.015839,58.544193 
	C262.504120,57.328121 259.673004,56.793022 257.037354,55.807690 
	C249.044296,52.819469 245.151382,46.799236 245.724579,38.480663 
	C246.194275,31.664221 250.766861,26.622578 258.841339,24.853411 
	C266.913788,23.084686 274.904083,22.953894 282.114288,28.263878 
	C281.268158,31.013937 280.542114,33.373772 279.988373,35.173470 
	C275.686829,34.426785 271.617401,33.485954 267.499146,33.157303 
	C266.356293,33.066101 265.068481,34.791203 263.847198,35.682999 
	C264.791687,36.829731 265.510040,38.488705 266.724182,39.024769 
	C270.038483,40.488098 273.711517,41.164227 276.971619,42.719822 
	C283.885376,46.018806 285.992950,52.046951 285.391144,59.273052 
	C284.767090,66.766632 281.225464,71.414017 274.217834,73.490639 
	C265.089783,76.195648 256.215820,75.419334 247.598679,71.190292 
	C243.869476,69.360107 246.291443,66.573799 246.276123,64.258675 
	C246.270737,63.446507 247.893799,62.623547 249.142670,61.943878 
z"/>
<path fill="#288421" opacity="1.000000" stroke="none" 
	d="
M218.105942,27.804707 
	C224.162216,26.864180 230.262451,25.908089 236.373169,25.024368 
	C237.478607,24.864502 238.626984,25.001600 239.941742,25.001600 
	C239.941742,41.343727 239.941742,57.239990 239.941742,73.485382 
	C234.183609,73.485382 228.451477,73.485382 221.930389,73.485382 
	C221.930389,68.892288 221.930374,64.161186 221.930374,59.430088 
	C221.930374,53.779781 221.947617,48.129406 221.923233,42.479202 
	C221.910797,39.595261 222.515274,36.748734 219.248856,34.594818 
	C218.125183,33.853855 218.615051,30.665976 218.245697,28.158669 
	C218.123581,27.721415 218.153503,27.813944 218.105942,27.804707 
z"/>
<path fill="#F3F3F3" opacity="1.000000" stroke="none" 
	d="
M308.584808,62.061554 
	C308.383972,53.681316 308.108978,45.716644 308.234009,37.758259 
	C308.283691,34.597145 309.093353,31.098066 313.269287,31.003771 
	C317.215118,30.914671 318.159607,34.211590 318.295471,37.212704 
	C318.662811,45.326385 318.860931,53.461121 318.692291,61.578484 
	C318.632538,64.453690 317.821991,67.793190 313.830963,68.025772 
	C310.029175,68.247330 309.384521,65.270874 308.584808,62.061554 
z"/>
<path fill="#F4F4F4" opacity="1.000000" stroke="none" 
	d="
M107.305511,44.083763 
	C106.064789,43.506065 104.619392,42.946590 104.603416,42.348915 
	C104.528801,39.556622 104.460381,36.646301 105.193130,34.000679 
	C105.552391,32.703537 107.646912,31.114628 108.981552,31.090916 
	C110.167046,31.069849 112.138870,32.853043 112.441589,34.148712 
	C113.142380,37.148132 113.042946,40.334515 113.314247,44.084389 
	C111.256577,44.084389 109.507957,44.084389 107.305511,44.083763 
z"/>
</svg>